# xmcd
#
# Track frame offsets:
#	150
#	15138
#	27135
#	43915
#	53595
#	75230
#	96705
#	112995
#	125820
#	143270
#	156663
#	171858
#	182180
#	195728
#
# Disc length: 2889 seconds
#
# Revision: 2
# Processed by: cddbd v1.5.2PL0 Copyright (c) Steve Scherf et al.
# Submitted via: EasyCDDAExtractor 11.1.0.1
#
DISCID=b30b470e
DTITLE=Various Artist - Mr. Music Country 1/95
DYEAR=1900
DGENRE=Country
TTITLE0=Cleve Francis - Love or the lack thereof
TTITLE1=Pirates of the Mississippi - The wilde side of life
TTITLE2=Ricky Lynn Gregg - To find where I belong 
TTITLE3=Tamra Rosanes - Louisiana saturday night 
TTITLE4=Ronnie Milsap - True beleiver 
TTITLE5=Charlie Daniels - Tennessee two-step
TTITLE6=Billy Dean - Cowboy band 
TTITLE7=Tanya Tucker - A blue guitar 
TTITLE8=Charlie Floyd - Carolina Rain 
TTITLE9=David Allan Coe - Your memory is still burning in my mind 
TTITLE10=Kostas - Good mornin' memory
TTITLE11=Del Revees - Louisiana legs 
TTITLE12=George Ducas - My world stopped turning 
TTITLE13=Chris LeDoux - Sons of the pioneers 
EXTD=
EXTT0=
EXTT1=
EXTT2=
EXTT3=
EXTT4=
EXTT5=
EXTT6=
EXTT7=
EXTT8=
EXTT9=
EXTT10=
EXTT11=
EXTT12=
EXTT13=
PLAYORDER=
